<svg xmlns="http://www.w3.org/2000/svg" viewBox="0 0 751.87 209.54"><defs><style>.cls-1{fill:#009fe3;}.cls-2{fill:#fff;}</style></defs><g id="Layer_2" data-name="Layer 2"><g id="Layer_1-2" data-name="Layer 1"><g id="Lakes"><path class="cls-1" d="M260.17,185.63c12.05-9,31.86-15.65,51.34-17.29,17.63-1.49,35.34,1,47.45,9.45,43.44,30.14,68.14,15.77,89.77,3.17,10.19-5.93,19.78-11.51,30.7-13.15l2,13.24c-8.44,1.27-17,6.22-26,11.48-25.05,14.58-53.65,31.23-104.06-3.75-9.33-6.47-23.89-8.35-38.76-7.09-17.17,1.44-34.32,7-44.43,14.62Z"/><path class="cls-1" d="M260.17,150.36c12.05-9,31.86-15.65,51.34-17.29,17.63-1.49,35.34,1.05,47.45,9.45,43.44,30.14,68.14,15.77,89.77,3.17,10.19-5.93,19.78-11.51,30.7-13.15l2,13.24c-8.44,1.27-17,6.22-26,11.48-25.05,14.58-53.65,31.23-104.06-3.74-9.33-6.48-23.89-8.36-38.76-7.1-17.17,1.45-34.32,7-44.43,14.62Z"/><path class="cls-1" d="M260.17,115.09c12.05-9,31.86-15.64,51.34-17.29,17.63-1.49,35.34,1.06,47.45,9.46,43.44,30.13,68.14,15.76,89.77,3.17,10.19-5.93,19.78-11.52,30.7-13.16l2,13.24c-8.44,1.27-17,6.22-26,11.48-25.05,14.59-53.65,31.23-104.06-3.74-9.33-6.47-23.89-8.36-38.76-7.1-17.17,1.45-34.32,7-44.43,14.62Z"/><path id="БольшойБерчикуль" class="cls-2" d="M726.36,53.51h-6.51V33.65h6.33c7.29,0,11.65,3.42,11.65,9.76s-4.45,10.1-11.47,10.1m-.43-31.68h-6.08V1.45h-14V65.32h19.86c15.58,0,26.11-8.64,26.11-22.43S742.63,21.83,725.93,21.83ZM637.49,65.75c17.3,0,24.31-8.3,24.31-28.59V14.21h16.27V65.32h14V1.45H648.19V37.33c0,11.47-3.08,16.27-10.7,16.27ZM626.36,1.45l-13.44,34-17.21-34h-15L606,47.86c-2.83,4.62-6.68,6.08-13.62,6.08V66.1c15.15,0,22.18-4.54,28.6-19.53L640.4,1.45ZM580.9,65.32,554.88,33,580.39,1.45H564L540.15,31.51V1.45h-14V65.32h14V34.93l24.06,30.39Zm-124.74,0h13.35L499,21.92h.08v43.4h13.27V1.45H498.88l-29.37,42.9h-.08V1.45H456.16ZM428.25,1.45V28.68a26.3,26.3,0,0,1-9.76,1.89c-6.34,0-9.76-3.26-9.76-10.28V1.45h-14V23.29c0,13.27,7.71,20,19.87,20A38.88,38.88,0,0,0,428.25,41V65.32H442.2V1.45Zm-65.76,33.4h-6.33V14.21h6.25c7.28,0,12.33,3.51,12.33,10.19S369.69,34.85,362.49,34.85ZM342.2,65.32h14V47.26h5.74c17.38,0,27-10.45,27-23.37,0-13.7-10.27-22.44-27.82-22.44H342.2Zm-51.88,0h40.07V52.83H304.28v-14h23.89V27.31H304.28V14h26.11V1.45H290.32ZM254.79,53.6h-6.42V36.47h6.34c7.62,0,11.47,2.74,11.47,8.39S261.81,53.6,254.79,53.6Zm.43-28.6h-6.85V13.27h28V1.45h-42V65.32h21.23c15.5,0,24.66-8,24.66-21.06S271.66,25,255.22,25ZM194.43,65.92a7.7,7.7,0,1,0-7.7-7.7A7.67,7.67,0,0,0,194.43,65.92Zm-72.86-.17c17.3,0,24.32-8.3,24.32-28.59V14.21h16.27V65.32h14V1.45H132.28V37.33c0,11.47-3.09,16.27-10.71,16.27ZM85.45,54c-9.77,0-18.93-7.45-18.93-20.63s9.16-20.55,18.93-20.55c9.58,0,18.74,7.45,18.74,20.55S95,54,85.45,54Zm0,12.76c18.66,0,32.87-14,32.87-33.39S104.11,0,85.45,0,52.4,14,52.4,33.39,66.69,66.78,85.45,66.78ZM20.38,53.6H14V36.47h6.34c7.62,0,11.47,2.74,11.47,8.39S27.4,53.6,20.38,53.6ZM20.8,25H14V13.27H42V1.45H0V65.32H21.23c15.5,0,24.66-8,24.66-21.06S37.24,25,20.8,25Z"/></g></g></g></svg>