<svg xmlns="http://www.w3.org/2000/svg" viewBox="0 0 370.48 108.37"><defs><style>.cls-1,.cls-2{fill:#fff;}.cls-1{fill-rule:evenodd;}</style></defs><g id="Layer_2" data-name="Layer 2"><g id="Layer_1-2" data-name="Layer 1"><g id="Prodigy"><path class="cls-1" d="M21.51,104.78h42.8l24.46,0c3.34,0,4.4.36,7.5-.86,6-2.38,16.31-7.39,22.76-10.12,3.14,1.74,10.77,7.08,14.55,9.62,2.84,1.91,3.59,1.38,7,1.37,5.35,0,10.74-.06,16.09,0,1.84,0,5.92.55,7.24-.78a2.59,2.59,0,0,0,.4-3c-.65-1.45-1.24-1.31-2.68-1.55-1.14-4.21-6-37.35-7.4-45.7-.37-2.25-.34-7-2.48-8.1s-15.37-4.7-16.1-5.48c-.45-.49-3.81-15.6-4.58-18.6-1.34-5.25-.75-3.33-7.63-8.12-1.5-1-3.39-2.83-5.28-1.92-2.29,1.08-6.62,5.12-9.15,6.74C108.1,17,106.12,10.94,105.4,9,104,5.19,101.91,4.9,98.8,2.72,94.37-.38,95.18-.66,89.92,1L70.34,7.52c-5.67,2-3.73,1.27-6.68,6.17-3.18,5.27-6,11.53-9.09,17-1.2-.89-6.56-8.36-8-10.18-4-4.88-3.13-4.9-10.73.38-3.59,2.49-7.37,4.94-11,7.34-2.6,1.72-2.24,3.19-3.11,6.21-.71,2.44-1.37,4.83-2.05,7.28-1,3.67-15.25,55.55-16.29,57.74-2.13.19-4,1.21-3.09,3.71.84,2.18,4.23,1.59,6.13,1.57,4.91-.05,10.26-.16,15.13,0M51.76,36a61.39,61.39,0,0,1-3.32,6.27C46.73,45.16,43,52,42.3,55.07c-.33,1.42-1.6,6.72-1.41,7.82.42,2.37,4.3,3.2,5.21-.42.56-2.21,1-5.67,1.69-7.65l9.9-18.77c1.13-2,2.12-4,3.28-6,2.26-3.86,4.53-8.39,6.56-12.45,2.45-4.89,2.34-4.38,4.56-5.1,3.42-1.12,20.59-7.21,21.55-6.93,1.42,1.08,3.14,2.15,4.66,3.15,2.48,1.63,2,1.9,3,4.45,1.41,3.69,2.69,7.35,4.14,11,1.74,4.34,2.63,9.65,5.53,9.46,4.69-.29,1-7.51-.1-10l8.56-6.33a31.55,31.55,0,0,1,4.71,3c2.19,1.43,1.85,2.72,2.48,5.25l7.49,31.14c.61,2.54.39,3.58,2.32,5.3,4.85.73,3.62-3.4,2.89-6.38s-1.48-6-2.16-9c1.32,0,9.11,2.71,10.89,3.38.63,1.13,8.16,47.66,7.92,49.55l-5.94,0c-.93-2.61-1.06-8.6-4.28-8.57-4.36,0-1.56,6.32-1.41,8.52-5.11.08-6.29.6-9.08-1.27-2-1.38-4.12-2.75-6.18-4.12-11.61-7.75-7.83-6.23-13.22-4.83-3-4.92-8.33-12-10.56-15.8-1.33-2.28.54-11.94-1-16.42-.75-2.2-1.44-4.33-2.17-6.52-2.6-7.79-2.33-10.76-6.65-10.72-2.53,2.92-1.39,3.21-.28,6.77,1,3.17,4.52,12.17,4.45,14.74s.28,7.1-.12,9.16C96.62,70.13,86.77,68,84.8,68.25a125.08,125.08,0,0,0-13,4.22c-.21-4.39,6.22-21.06,3.77-23.41a2.65,2.65,0,0,0-4.36,1.17L66,73.92c-.76,3.35-5.27,11.53-7,14.93-1.24,2.47-.87,2.53-3.16,4.25-1.36,1-2.7,2-4,3C47.09,99.69,47.5,100,41,99.45c-1.92-1.37-5.1-4.81-6.91-6.62-4.3-4.3-4.87-5.49-7.71-4.07-3.78,1.9-15,8.86-17,9.56.33-2.84,15.85-56.46,17.56-63.07,1-3.7.9-2.74,6.84-6.7,2.39-1.59,5.58-4,8-5.26C43.36,24.5,50.07,33.67,51.76,36ZM18.46,99.46c2.64-1.26,6.82-4.56,9.63-5.38L33,99.51Z"/><path class="cls-2" d="M335,94.51c-3.09,0-5.38-2.53-5.38-6s2.29-6,5.38-6,5.26,2.49,5.26,6-2.24,6-5.26,6m-1.91,5.87a8.5,8.5,0,0,0,7.42-4l.65,3.46h5.5V77.23h-5.5l-.65,3.46a8.59,8.59,0,0,0-7.42-4c-5.1,0-10,4.73-10,11.94C323.09,95.65,328,100.38,333.12,100.38Zm-25-5.87c-3,0-5.22-2.48-5.22-6s2.2-6,5.26-6,5.3,2.49,5.3,6S311.23,94.51,308.14,94.51Zm-11.66,13.86H303V96.51a8.36,8.36,0,0,0,7.09,3.87c5.3,0,10-4.61,10-11.86S315.23,76.66,310,76.66a8.67,8.67,0,0,0-7.38,4l-.65-3.46h-5.46ZM276.59,86.44a5.44,5.44,0,0,1,5.18-4.64c2.4,0,4.24,1.71,4.28,4.64Zm15.65,1.71c0-7.54-4.68-11.49-10.43-11.49-6.28,0-11.33,4.77-11.33,11.94,0,6.85,4.56,11.78,12.51,11.78a15.56,15.56,0,0,0,7.87-2V93a13.13,13.13,0,0,1-7.05,2.25c-3.43,0-6.24-1.68-7.1-4.89h15.37A12.46,12.46,0,0,0,292.24,88.15Zm-27.59,6.28V77.27h-6.52V94.43h-5.46V77.27h-6.44V94.43h-5.46V77.27h-6.52V99.81h28.32V105h5.63V94.43Zm-50.25-8a5.44,5.44,0,0,1,5.18-4.64c2.4,0,4.24,1.71,4.28,4.64Zm15.65,1.71c0-7.54-4.68-11.49-10.43-11.49-6.28,0-11.33,4.77-11.33,11.94,0,6.85,4.56,11.78,12.51,11.78a15.59,15.59,0,0,0,7.87-2V93a13.13,13.13,0,0,1-7,2.25c-3.43,0-6.24-1.68-7.1-4.89h15.37A12.46,12.46,0,0,0,230.05,88.15ZM196.92,99.81h6.64V69.41H178.74v30.4h6.65V75.48h11.53Zm164-68.55c-1.91,0-3.14-1-3.14-2.93,0-1.79,1.19-2.94,3.18-2.94h3v5.87Zm.32-11c-6.51,0-9.69,3.34-9.69,7.58A7.29,7.29,0,0,0,357,34.89l-6.44,7.91H358L364,33.87V42.8h6.52V20.22Zm-26,17.28c-3.1,0-5.38-2.53-5.38-6s2.28-6,5.38-6,5.26,2.49,5.26,6S338.28,37.5,335.27,37.5Zm-1.92,5.87a8.48,8.48,0,0,0,7.42-4l.65,3.47h5.5V20.22h-5.5l-.65,3.46a8.58,8.58,0,0,0-7.42-4c-5.09,0-10,4.73-10,11.94C323.33,38.64,328.26,43.37,333.35,43.37Zm-11-.57-8-11.74,7.75-10.84h-7.22L308,30.53V20.22h-6.51V42.8H308V31.88l6.93,10.92ZM284.9,31.51a5.9,5.9,0,0,1,6.23-6,9.94,9.94,0,0,1,5.67,1.71v-6a13.27,13.27,0,0,0-6.65-1.59A11.55,11.55,0,0,0,278.3,31.47a11.55,11.55,0,0,0,11.85,11.9,14.65,14.65,0,0,0,6.65-1.55v-6a9.38,9.38,0,0,1-5.67,1.67C287.75,37.5,284.9,35.26,284.9,31.51Zm-21.6,0a5.91,5.91,0,0,1,6.24-6,9.91,9.91,0,0,1,5.66,1.71v-6a13.23,13.23,0,0,0-6.64-1.59A11.56,11.56,0,0,0,256.7,31.47a11.55,11.55,0,0,0,11.86,11.9,14.61,14.61,0,0,0,6.64-1.55v-6a9.33,9.33,0,0,1-5.66,1.67C266.15,37.5,263.3,35.26,263.3,31.51Zm-22.45,6c-3.1,0-5.38-2.53-5.38-6s2.28-6,5.38-6,5.26,2.49,5.26,6S243.86,37.5,240.85,37.5Zm-1.92,5.87a8.48,8.48,0,0,0,7.42-4L247,42.8h5.5V20.22H247l-.65,3.46a8.58,8.58,0,0,0-7.42-4c-5.09,0-10,4.73-10,11.94C228.91,38.64,233.84,43.37,238.93,43.37Zm-22.9,0c6.07,0,9.78-2.69,9.78-6.89a5.59,5.59,0,0,0-4.07-5.3l0,0a5.8,5.8,0,0,0,3.42-5.25c0-3.92-3.34-6.24-9.29-6.24a16.06,16.06,0,0,0-7.5,1.71v5.46a13.1,13.1,0,0,1,6.89-1.95c2.32,0,3.58.69,3.58,2s-1.26,2.33-3.58,2.33h-3.63v4.4h3.55c2.64,0,4.15.85,4.15,2.24s-1.3,2.32-3.58,2.32A13.35,13.35,0,0,1,208,35.54v5.91A16.66,16.66,0,0,0,216,43.37Zm-25.22-24,3.83,10.6H187ZM206.17,42.8,194.64,12.4H187L175.61,42.8h6.92l2.61-7.42h11.37l2.69,7.42Z"/></g></g></g></svg>