<svg xmlns="http://www.w3.org/2000/svg" viewBox="0 0 370.03 98.09"><defs><style>.cls-1,.cls-2{fill:#fff;}.cls-1{fill-rule:evenodd;}</style></defs><g id="Layer_2" data-name="Layer 2"><g id="Layer_1-2" data-name="Layer 1"><path class="cls-1" d="M27.81,37.88V63.37h-3c-.08-7.42.88-6.76-5.49-6.75-3.92,0-2.78,3.22-2.79,6.75l-4.67,0c0-7.11.75-6.89-5.68-6.73-3.25.09-2.57,1.78-2.57,6.67C-.74,63.81.06,64,.06,71.4L.11,94.21H63.38l.1-9.12c0-11.87,16.14-11.87,16.14,0l0,9.12c10.62.26,23.61-.06,34.62,0l28.67,0c.33-6.35.11-20.07.11-27.27,0-3.28-.58-3.29-3.58-3.64,0-2,.58-5.85-1.09-6.48a17.3,17.3,0,0,0-3.73-.2c-4.06,0-3.49.51-3.42,6.68l-4.67.08c0-7.21.74-6.75-5.87-6.75a4.86,4.86,0,0,0-2,.43c-.49,1.54-.38,4.47-.38,6.32h-3V38.16c0-8.86,1.14-7.33-13.85-7.23C89,31,91.41,28.29,91.33,49.34v4.13l-2.73,0c0-1.93.29-4.79-.52-6.42-1.59-.53-6.14-1-7.42.47-.66,1.48-.31,4-.31,5.81l-4.67.15c0-2.11.6-5.45-1-6.56a17.43,17.43,0,0,0-6.36,0c-1.42.7-.92,4.31-.94,6.57H62.78c0-1.69.65-5.47-.73-6.41-1-.69-5.91-.38-7,0-.81,1.64-.49,4.15-.51,6.42l-2.73,0V37.88c0-8.21.59-6.9-11.78-7-13-.08-12.18-1.45-12.18,7"/><path class="cls-1" d="M89.93,27.62c2.24,1.27,9.49.61,12.9.65,15.37.16,15.44.78,12.53-5.42-.73-1.57-1.42-3.21-2.24-4.76-2.33-4.44-4.72-10.25-6.71-13.95-.77-1.43-1.32-3.87-2.83-4.09-1.88-.26-2.48,2.22-3.12,3.63-.71,1.58-1.52,3.1-2.28,4.69-1.52,3.21-3.07,6.33-4.54,9.45-1.14,2.42-4.2,7.12-3.71,9.8"/><path class="cls-1" d="M36.08,28.27c4.21,0,15,.58,17.09-.65.38-1.92-.22-2.58-1-4.16L42.65,3.68c-.59-1.29-1-3.14-2.32-3.56-1.88-.61-2.25,1.25-2.88,2.55-1,2-11.21,22.77-11.21,23.77,0,2.07,2.13,1.84,4,1.81s3.92,0,5.87,0"/><path class="cls-2" d="M338.05,85.65h-2.54V79.56h2.66a2.75,2.75,0,0,1,2.85,3,2.93,2.93,0,0,1-3,3.08m.89-10.48h-3.43V68.66h-6.16V90h9c4.93,0,8.63-3.12,8.63-7.43S343.72,75.17,338.94,75.17ZM313.94,90h6.16V73.74h6V68.66H308v5.08h6ZM294.25,79.33a5.58,5.58,0,0,1,5.9-5.66,9.33,9.33,0,0,1,5.35,1.62V69.62a12.49,12.49,0,0,0-6.28-1.5,11.21,11.21,0,1,0,0,22.42,13.87,13.87,0,0,0,6.28-1.46V83.41A8.81,8.81,0,0,1,300.15,85,5.57,5.57,0,0,1,294.25,79.33ZM274,85c-2.54,0-5-2-5-5.66s2.43-5.66,5-5.66,5,2,5,5.66S276.57,85,274,85Zm0,5.55a11.21,11.21,0,1,0-11.21-11.21A10.87,10.87,0,0,0,274,90.54ZM239.86,90H246V73.74h6.67V90h6.16V68.66h-19ZM221.1,77.37A5.14,5.14,0,0,1,226,73c2.27,0,4,1.62,4,4.4ZM235.89,79c0-7.12-4.43-10.86-9.86-10.86-5.93,0-10.71,4.51-10.71,11.29,0,6.47,4.31,11.13,11.83,11.13a14.54,14.54,0,0,0,7.43-1.93v-5a12.38,12.38,0,0,1-6.66,2.12c-3.24,0-5.9-1.58-6.71-4.63h14.53A12,12,0,0,0,235.89,79Zm-34.71,6c-2.85,0-4.93-2.35-4.93-5.66s2.08-5.66,5-5.66,5,2.35,5,5.62S204.11,85,201.18,85Zm-11,13.1h6.17V86.88a7.88,7.88,0,0,0,6.7,3.66c5,0,9.44-4.35,9.44-11.21s-4.59-11.21-9.55-11.21a8.2,8.2,0,0,0-7,3.81l-.61-3.27h-5.17ZM187.7,90,176,75.44l11.48-14.18h-7.36L169.36,74.78V61.26h-6.28V90h6.28V76.33L180.19,90ZM361,25.21c-1.81,0-3-.93-3-2.78a2.67,2.67,0,0,1,3-2.77h2.85v5.55Zm.31-10.44c-6.16,0-9.17,3.15-9.17,7.16a6.88,6.88,0,0,0,5.17,6.7l-6.09,7.48h7.05l5.62-8.44v8.44H370V14.77ZM336.74,31.1c-2.92,0-5.08-2.39-5.08-5.66s2.16-5.67,5.08-5.67,5,2.35,5,5.67S339.59,31.1,336.74,31.1Zm-1.81,5.55a8,8,0,0,0,7-3.82l.62,3.28h5.2V14.77h-5.2L341.94,18a8.08,8.08,0,0,0-7-3.81c-4.81,0-9.47,4.47-9.47,11.28S330.12,36.65,334.93,36.65Zm-10.4-.54L317,25l7.32-10.24h-6.82l-6.55,9.74V14.77h-6.16V36.11h6.16V25.78l6.55,10.33ZM297.76,31V14.77h-6.17V31h-6.43V14.77H279V36.11h16.83V41h5.32V31Zm-37.52-7.55a5.13,5.13,0,0,1,4.89-4.39c2.27,0,4,1.62,4,4.39ZM275,25.09c0-7.13-4.43-10.86-9.86-10.86-5.93,0-10.71,4.5-10.71,11.28,0,6.48,4.31,11.14,11.83,11.14a14.67,14.67,0,0,0,7.43-1.93v-5a12.38,12.38,0,0,1-6.66,2.12c-3.24,0-5.9-1.58-6.71-4.62h14.53A12,12,0,0,0,275,25.09Zm-43.88,11h6.17v-8h7v8h6.16V14.77h-6.16V23h-7V14.77h-6.17Zm-13.33.54c5.74,0,9.25-2.55,9.25-6.51a5.27,5.27,0,0,0-3.85-5l0,0a5.48,5.48,0,0,0,3.24-5c0-3.7-3.16-5.89-8.78-5.89a15.17,15.17,0,0,0-7.09,1.61V21a12.32,12.32,0,0,1,6.51-1.85c2.2,0,3.39.65,3.39,1.89s-1.19,2.19-3.39,2.19H213.7V27.4h3.35c2.51,0,3.93.81,3.93,2.12s-1.23,2.2-3.39,2.2a12.64,12.64,0,0,1-7.36-2.47v5.59A15.74,15.74,0,0,0,217.82,36.65Zm-9.16-21.88h-6.32l-4.59,14.06h-.15L193,14.77h-6.58l8,20.76-3.62,8.67H197Zm-21,21.34L176,21.55,187.47,7.37h-7.36L169.36,20.89V7.37h-6.28V36.11h6.28V22.43l10.83,13.68Z"/></g></g></svg>