<svg xmlns="http://www.w3.org/2000/svg" viewBox="0 0 536.31 154.06"><defs><style>.cls-1,.cls-2{fill:#fff;}.cls-1{fill-rule:evenodd;}</style></defs><g id="Layer_2" data-name="Layer 2"><g id="Layer_1-2" data-name="Layer 1"><path class="cls-1" d="M35.84,33H49.2V44.47H35.84Zm-3-26.28a21.44,21.44,0,0,0-.27,5l.25,1.62a2.26,2.26,0,0,0,.79.83l.48.12.86,2.4a13.72,13.72,0,0,1,1.73,3.54c1,3.26-4.21,3.76-7.23,4.4C22.3,28,12.32,40.71,14.53,46.72a23.33,23.33,0,0,0,5,4.9c1.31,1,6.14,4,6.82,5,.93.34.63.59.5,1.64-.36,2.82.79,9.93.39,11.34,1.91,2.55,5.61,34,6,43.9.06.2,17.24,1.11,17.73,0,.15-10.75,2.64-31.84,5.69-42.86a66.69,66.69,0,0,0,.8-13.69c4.2-3,8.81-5.11,12.09-8.85a4.3,4.3,0,0,0,1.33-2.32c.54-4.5-6-12.38-8.42-16.53-5.07-4.09-5.4-3.67-12.23-5.9A2,2,0,0,1,48.36,22a3,3,0,0,1,.11-1.37c.1-.33,2.29-5.56,2.69-6,.15-.19.44-.35.7-.61s.18-.28.45-.48a16.17,16.17,0,0,0-.07-6.82c-.79-2.4-1.72-4.58-4.62-5.78A14.87,14.87,0,0,0,37.85.75C34.66,2,33.72,4.05,32.84,6.67Z"/><path class="cls-1" d="M0,146l0,1.89H85.09a11.6,11.6,0,0,0-.64-4.41,12.51,12.51,0,0,0-9.06-6.62c-5-.62-10.42-.33-15.6-.33s-10.4,0-15.6,0c-10.53,0-21.09-.08-31.62,0C5.32,136.92,1,140.55,0,146"/><path class="cls-1" d="M14.12,130.91l56.78-.07L70.84,124c-1-3.3-2.74-4.27-6.48-4.5-13.57-.23-28.23,0-42,0-9.8.31-8.13,6.28-8.22,11.43"/><path class="cls-2" d="M528.09,148.19l8.22-6.43v-2.4l-8.22-6.4v4.21l4.6,3.4-4.6,3.41Zm-8.34,0,8.23-6.43v-2.4l-8.23-6.4v4.21l4.6,3.4-4.6,3.41Zm-11.4-3.55a4.09,4.09,0,0,1,0-8.14c2,0,3.57,1.69,3.57,4.07S510.4,144.64,508.35,144.64Zm-1.3,4a5.77,5.77,0,0,0,5-2.74l.44,2.35h3.74V132.9h-3.74l-.44,2.36a5.84,5.84,0,0,0-5-2.74c-3.46,0-6.81,3.21-6.81,8.11S503.59,148.63,507.05,148.63Zm-17-8.06a4,4,0,0,1,4.23-4.07,6.73,6.73,0,0,1,3.85,1.17V133.6a8.93,8.93,0,0,0-4.51-1.08,8.06,8.06,0,1,0,0,16.11,10,10,0,0,0,4.51-1v-4.07a6.39,6.39,0,0,1-3.85,1.13A4,4,0,0,1,490,140.57Zm-14.68,0a4,4,0,0,1,4.24-4.07,6.73,6.73,0,0,1,3.85,1.17V133.6a8.93,8.93,0,0,0-4.51-1.08,8.06,8.06,0,1,0,0,16.11,10,10,0,0,0,4.51-1v-4.07a6.39,6.39,0,0,1-3.85,1.13A4,4,0,0,1,475.34,140.57Zm-15.25,4.07a4.09,4.09,0,0,1,0-8.14c2.05,0,3.57,1.69,3.57,4.07S462.14,144.64,460.09,144.64Zm-1.3,4a5.76,5.76,0,0,0,5-2.74l.44,2.35H468V132.9h-3.74l-.44,2.36a5.82,5.82,0,0,0-5-2.74c-3.46,0-6.81,3.21-6.81,8.11S455.33,148.63,458.79,148.63ZM442,144.81a3.62,3.62,0,0,1-3.65-3.85,3.64,3.64,0,1,1,3.65,3.85Zm1.33-11.19a6.49,6.49,0,0,0-5.4,2.8c.33-3.46,1.86-5.09,4.87-5.7,1.53-.31,3.71-.64,6-.92v-4.07c-2.65.36-5.28.72-7.17,1.19-5,1.25-7.61,4.66-7.64,11.58,0,6.53,3,10.13,8.2,10.13,4.59,0,7.75-3.1,7.75-7.56C449.9,136.86,447.13,133.62,443.31,133.62Zm-18.44,15c4.13,0,6.65-1.83,6.65-4.68a3.79,3.79,0,0,0-2.77-3.6l0,0a3.92,3.92,0,0,0,2.33-3.57c0-2.65-2.27-4.23-6.31-4.23a10.87,10.87,0,0,0-5.1,1.16v3.71a8.88,8.88,0,0,1,4.68-1.33c1.58,0,2.44.47,2.44,1.36S426,139,424.37,139h-2.46v3h2.41c1.8,0,2.82.58,2.82,1.52s-.89,1.58-2.44,1.58a9,9,0,0,1-5.28-1.77v4A11.23,11.23,0,0,0,424.87,148.63Zm-6.59-15.73h-4.54L410.45,143h-.12L407,132.9h-4.73l5.78,14.93-2.6,6.23h4.4Zm-15.06,15.34-8.42-10.46,8.25-10.19h-5.29L390,137.31v-9.72h-4.51v20.65H390v-9.83l7.78,9.83Zm-46.76,0h4.15l.52-9.22h.09l3,9.06h3.21l3-9h.11l.53,9.19h4.21l-1.69-15.31H369l-3.11,9.19h-.05l-3.07-9.19h-4.74Zm-10.94-3.6a4.09,4.09,0,0,1,0-8.14c2.05,0,3.57,1.69,3.57,4.07S347.57,144.64,345.52,144.64Zm-1.3,4a5.76,5.76,0,0,0,5-2.74l.44,2.35h3.74V132.9H349.7l-.44,2.36a5.82,5.82,0,0,0-5-2.74c-3.46,0-6.81,3.21-6.81,8.11S340.76,148.63,344.22,148.63Zm-17-4c-2.05,0-3.55-1.68-3.55-4.07s1.5-4.07,3.57-4.07,3.6,1.69,3.6,4.05S329.35,144.64,327.25,144.64Zm-7.92,9.42h4.43V146a5.65,5.65,0,0,0,4.81,2.63c3.6,0,6.79-3.13,6.79-8.06s-3.3-8-6.87-8a5.89,5.89,0,0,0-5,2.74L323,132.9h-3.71Zm-13.51-14.9a3.67,3.67,0,0,1,3.51-3.15,2.89,2.89,0,0,1,2.91,3.15Zm10.63,1.16c0-5.12-3.19-7.8-7.09-7.8-4.26,0-7.7,3.24-7.7,8.11,0,4.65,3.1,8,8.5,8a10.58,10.58,0,0,0,5.35-1.38v-3.63a9,9,0,0,1-4.79,1.52c-2.33,0-4.24-1.13-4.82-3.32h10.44A8.5,8.5,0,0,0,316.45,140.32Zm-3.8-9.66a2,2,0,1,0-2.07-2A2,2,0,0,0,312.65,130.66Zm-6.42,0a2,2,0,1,0-2.08-2A2.06,2.06,0,0,0,306.23,130.66Zm-14.42,17.58h4.43V136.56h4.31V132.9h-13v3.66h4.3Zm-5.18-15.34h-4.76L279,137.69h0L276,132.9h-4.85l5.18,7.7-5.23,7.64h4.79l2.93-4.81h.06l2.93,4.81h5l-5.32-7.83ZM261,144.64a4.09,4.09,0,0,1,0-8.14c2,0,3.58,1.69,3.58,4.07S263.09,144.64,261,144.64Zm-1.3,4a5.75,5.75,0,0,0,5-2.74l.45,2.35H269V132.9h-3.73l-.45,2.36a5.81,5.81,0,0,0-5-2.74c-3.46,0-6.81,3.21-6.81,8.11S256.28,148.63,259.74,148.63Zm-14.14-15.7v11.66h-3.74V132.93h-4.35v11.66h-3.74V132.93h-4.43v15.31H250V132.93Zm-32.07,12.18h-1.82v-4.37h1.91a2,2,0,0,1,2,2.16A2.1,2.1,0,0,1,213.53,145.11Zm.64-7.53h-2.46V132.9h-4.43v15.34h6.5c3.55,0,6.2-2.24,6.2-5.34S217.6,137.58,214.17,137.58Zm-18,10.66h4.43V136.56H205V132.9h-13v3.66h4.29Zm-13.12-7.83a1.88,1.88,0,0,1-2.13-2,1.92,1.92,0,0,1,2.16-2h2v4Zm.22-7.51c-4.43,0-6.59,2.28-6.59,5.15a4.94,4.94,0,0,0,3.71,4.82l-4.37,5.37h5.06l4-6.06v6.06h4.43V132.9Zm-27.8,15.34h4.15l.53-9.22h.08l3,9.06h3.22l3-9h.11l.52,9.19h4.21l-1.69-15.31h-4.54l-3.1,9.19h-.05l-3.08-9.19h-4.73Zm-10.94-3.6a4.09,4.09,0,0,1,0-8.14c2.05,0,3.58,1.69,3.58,4.07S146.61,144.64,144.56,144.64Zm-1.3,4a5.75,5.75,0,0,0,5-2.74l.45,2.35h3.73V132.9h-3.73l-.45,2.36a5.81,5.81,0,0,0-5-2.74c-3.46,0-6.81,3.21-6.81,8.11S139.8,148.63,143.26,148.63Zm-14.53-.39h4.51V127.59H116.38v20.65h4.51V131.71h7.84ZM112.53,133l-8.22,6.42v2.41l8.22,6.4V144l-4.6-3.41,4.6-3.4Zm-8.33,0L96,139.38v2.41l8.23,6.4V144l-4.6-3.41,4.6-3.4Zm129.91-23.45h4.43V97.82h4.31V94.17h-13v3.65h4.3Zm-20.49,0h4.43v-5.76h5v5.76h4.43V94.17h-4.43v5.93h-5V94.17h-4.43Zm-13.49-9.08a3.7,3.7,0,0,1,3.52-3.16,2.9,2.9,0,0,1,2.91,3.16Zm10.64,1.16c0-5.12-3.19-7.81-7.09-7.81-4.27,0-7.7,3.24-7.7,8.12,0,4.65,3.1,8,8.5,8a10.42,10.42,0,0,0,5.34-1.39v-3.62a8.9,8.9,0,0,1-4.79,1.52c-2.32,0-4.23-1.14-4.81-3.32h10.43A7.73,7.73,0,0,0,210.77,101.59Zm-35.67,7.92h4.16l.52-9.22h.09l3,9h3.21l3-9h.11l.52,9.19h4.21L192.21,94.2h-4.54l-3.1,9.19h0l-3.08-9.19h-4.73Zm-1-15.34h-4.54l-3.3,10.11h-.11l-3.29-10.11h-4.74l5.79,14.92-2.6,6.23h4.4Zm-32,15.34h4.43v-5.76h5v5.76H156V94.17h-4.43v5.93h-5V94.17h-4.43Zm-10.91-3.6c-1.83,0-3.57-1.47-3.57-4.07s1.74-4.07,3.57-4.07a4.1,4.1,0,0,1,0,8.14Zm0,4a8.06,8.06,0,1,0-8.06-8.06A7.82,7.82,0,0,0,131.22,109.9ZM102.06,95.11h.09l4.46,14.4h3.84l4.49-14.45h.11l1.74,14.45h4.32l-3-20.66H113l-4.27,13.82h-.05l-4.35-13.82H98.94l-3,20.66h4.3Z"/></g></g></svg>