<svg xmlns="http://www.w3.org/2000/svg" viewBox="0 0 537.22 124.68"><defs><style>.cls-1{fill:#fff;}</style></defs><g id="Layer_2" data-name="Layer 2"><g id="Layer_1-2" data-name="Layer 1"><g id="Prodigy"><path class="cls-1" d="M.28,29.56s0,0,0,0ZM110.47,28.4h1.09v0h.31c.48,0,.75,0,1,0a14.31,14.31,0,0,0,1.42-.24c.06-.23.11-.46.15-.7a4.57,4.57,0,0,0,0-1.41,5,5,0,0,0-.32-1.24l-.1-.21a102.23,102.23,0,0,1-10.83-3.89c-.86-.35-1.63-.65-2.39-.94h0L61.33,5l-3.21-.19A1.76,1.76,0,0,1,57.6,5a2.46,2.46,0,0,1-.7,0h0c.09,0,.17,0,0,0L17.14,19.93c-1.38.55-3,1.11-4.74,1.7a73.15,73.15,0,0,0-8,3.06c0,.16-.06.46-.11.8a12.56,12.56,0,0,0-.07,2.61l0,.12a10.6,10.6,0,0,0,2.93.21v0H110.47ZM28.55,85.84v-39h-10c0,1.25,0,2.53,0,4,.08,9.94.23,27.89-.12,35Zm21.37,0v-39H32.76v39Zm14.24,0v-39h-10v39ZM86,42.63h15.73a3.54,3.54,0,0,1,2.21-.56.94.94,0,0,0,.39,0,3.55,3.55,0,0,0,1.6-1.19,4.6,4.6,0,0,0,1-2.15,35.33,35.33,0,0,0,.45-6.09h-96a16.09,16.09,0,0,0,.2,4.37l.06.21L11.78,39a2.33,2.33,0,0,1,.39.69,1.55,1.55,0,0,1,.16.73c.08.1.17.23.29.41A3,3,0,0,0,14.77,42a7.55,7.55,0,0,1,2.13.59Zm4.21,4.21v39h10v-39ZM86,85.84v-39H68.37v39ZM15.44,90.27h0a2.36,2.36,0,0,1-.57.19h0a1.84,1.84,0,0,1-.41,0A2.76,2.76,0,0,1,13.3,91l-1,1.08a1.75,1.75,0,0,1-.16.67,2.13,2.13,0,0,1-.39.69l-.19,1.83-.06.2a8.42,8.42,0,0,0-.1,2.81c0,.6.07,1.21.06,1.81h95.89c0-2.77-.14-6.75-1.07-8-.74-1-.9-1.05-1-1.05a1.92,1.92,0,0,1-.87-.13l-.27-.1L104,90.6a1.71,1.71,0,0,0-.8-.28A8.81,8.81,0,0,1,102,90H16.62a1.91,1.91,0,0,1-.56.19h0A2.36,2.36,0,0,1,15.44,90.27ZM.28,115.49s0,0,0,0ZM5.46,101l.3-.21v-.42H7.29c0-.55,0-1.18,0-1.81a12.07,12.07,0,0,1,.22-4.1l.28-2.72.32-.46.09-.11,0-.72,2.74-3.09.56-.18c.5-.16.73-.21.9-.25s-.09,0,.19-.17l.3-.22v-.42h1.45c.27-4.94.11-24.64,0-35.16l0-4.69-.24,0a6.55,6.55,0,0,1-4.74-2.72l-.05-.06-.1-.15a5,5,0,0,0-.39-.52c0,.06.13.16,0,0h0s0,0,0,0h0L8.2,42l0-.66-.09-.12-.32-.45L7.46,38a19.22,19.22,0,0,1-.32-5.39,11.52,11.52,0,0,1-5.61-.94L.41,31.17l-.1-1.23,0-.3c0-.06,0,0,0-.06h0c0-.07,0,0,0,0v0h0v0h0l-.15-.45,0-.16a17.1,17.1,0,0,1,0-4,6,6,0,0,1,1.2-3.23l.22-.24.28-.16a61.13,61.13,0,0,1,9.22-3.66c1.77-.61,3.45-1.19,4.58-1.64h0l40-15,0-.52,1.64.1,1.5-.6.28.7,3,.18,40.19,15h0l2.43,1c3.48,1.38,8.49,3.38,10.49,3.76l.27,0,.23.1A4.55,4.55,0,0,1,118,23.12a9,9,0,0,1,.64,2.3,8.78,8.78,0,0,1,0,2.75,10.75,10.75,0,0,1-.83,2.73l-.45,1-1.07.2-1,.2a17.85,17.85,0,0,1-2,.33c-.37,0-.74,0-1.41,0h-.23a38.74,38.74,0,0,1-.5,6.77,9.06,9.06,0,0,1-1.87,4.11,7.69,7.69,0,0,1-3.6,2.53,4.84,4.84,0,0,1-1.14.23v40a5,5,0,0,1,1.4.53c.84.1,2.26.58,3.84,2.76,1.74,2.38,1.88,7.71,1.88,11a4.45,4.45,0,0,1,1.4.53c.84.1,2.26.58,3.84,2.75,1.11,1.51,1.44,3.88,1.71,5.83.06.45.12.88.14,1a11,11,0,0,1,0,3.14,10.87,10.87,0,0,1-.86,3l-.45,1-1.07.2-.84.19c-.28.06-.54.14-.8.22l-.33.11H4.23l-.33-.11c-.24-.08-.46-.14-.66-.19a9.71,9.71,0,0,1-1.71-.61L.41,117.1l-.1-1.23,0-.3c0-.06,0,0,0-.06h0c0-.07,0,0,0,0v0h0v0h0L.13,115l0-.15a28.35,28.35,0,0,1,0-4.3A29.21,29.21,0,0,1,.66,106l.1-.32.18-.24.08-.12.06-.72,2.74-3.09.56-.18a6.56,6.56,0,0,1,.9-.24C5.35,101.11,5.19,101.14,5.46,101Zm2.86,3.57h0a2.11,2.11,0,0,1-.57.19h0a1.9,1.9,0,0,1-.41,0,2.53,2.53,0,0,1-1.16.48l-1,1.08a1.72,1.72,0,0,1-.16.67,2.05,2.05,0,0,1-.48.78c-.07.62-.17,1.81-.24,3s-.14,2.73-.1,3.25l0,.1.09,0,.49.14H113.68l.61-.17a8.17,8.17,0,0,0,.23-2.86c-.08-.52-.12-.78-.16-1.06-.21-1.49-.46-3.3-.93-3.94-.73-1-.9-1.06-1-1.06a1.92,1.92,0,0,1-.87-.13l-.27-.09-.23-.17a1.83,1.83,0,0,0-.8-.28,8.63,8.63,0,0,1-1.17-.27H9.5a2,2,0,0,1-.56.18h0A2.93,2.93,0,0,1,8.32,104.52Z"/><path class="cls-1" d="M457,118.08h4.71l.6-10.47h.1l3.39,10.28h3.65l3.39-10.25H473l.6,10.44h4.77l-1.91-17.38h-5.16l-3.52,10.43h-.06l-3.49-10.43h-5.38ZM445.41,114c-2.07,0-4.05-1.66-4.05-4.62s2-4.62,4.05-4.62,4.09,1.67,4.09,4.62S447.49,114,445.41,114Zm0,4.53a9.15,9.15,0,1,0-9.14-9.15A8.87,8.87,0,0,0,445.41,118.52ZM425,114.18a4.1,4.1,0,0,1-4.15-4.36,4.14,4.14,0,1,1,4.15,4.36Zm1.51-12.69a7.34,7.34,0,0,0-6.13,3.17c.38-3.93,2.11-5.78,5.53-6.47,1.73-.35,4.22-.73,6.79-1V92.53c-3,.41-6,.81-8.14,1.35-5.69,1.41-8.65,5.28-8.68,13.14,0,7.42,3.37,11.5,9.31,11.5,5.21,0,8.8-3.52,8.8-8.58C433.94,105.16,430.8,101.49,426.46,101.49Zm-25.36,6.28a4.18,4.18,0,0,1,4-3.58c1.85,0,3.26,1.32,3.29,3.58Zm12.06,1.32c0-5.81-3.61-8.86-8-8.86-4.84,0-8.74,3.68-8.74,9.21,0,5.28,3.52,9.08,9.65,9.08A12,12,0,0,0,412.1,117v-4.12a10.12,10.12,0,0,1-5.44,1.73c-2.64,0-4.81-1.29-5.47-3.77H413A9.78,9.78,0,0,0,413.16,109.09Zm-35.8,9h5v-6.54h5.69v6.54h5V100.67h-5v6.73h-5.69v-6.73h-5Zm-32.56,0h4.71l.6-10.47h.09l3.4,10.28h3.64l3.4-10.25h.12l.6,10.44h4.78l-1.92-17.38h-5.15l-3.52,10.43h-.07L352,100.7h-5.37Zm-17.89-3.55H325v-5h2A2.25,2.25,0,0,1,329.3,112,2.36,2.36,0,0,1,326.91,114.53Zm9.43-13.86v17.41h5V100.67ZM327.67,106H325v-5.31h-5v17.41h7.23c4,0,7-2.54,7-6.06S331.56,106,327.67,106Zm-20.28,12.1h5V104.82h4.9v-4.15h-14.8v4.15h4.87Zm-22-3.55H283.5v-5h2A2.24,2.24,0,0,1,287.8,112,2.35,2.35,0,0,1,285.42,114.53Zm9.43-13.86v17.41h5V100.67ZM286.17,106H283.5v-5.31h-5v17.41h7.23c4,0,7-2.54,7-6.06S290.07,106,286.17,106ZM266,114c-2.32,0-4-1.91-4-4.62s1.7-4.62,4.06-4.62,4.08,1.92,4.08,4.59S268.38,114,266,114Zm-9,10.69h5v-9.14a6.44,6.44,0,0,0,5.47,3c4.09,0,7.7-3.55,7.7-9.15s-3.74-9.14-7.79-9.14a6.67,6.67,0,0,0-5.69,3.11l-.51-2.67H257Zm-2.41-6.6-6.17-9,6-8.36h-5.57l-5.34,8v-8h-5v17.41h5v-8.42l5.34,8.42Zm-28.7,0h5V104.82h4.9v-4.15H221v4.15h4.87ZM210.64,114c-2.07,0-4-1.66-4-4.62s2-4.62,4-4.62,4.09,1.67,4.09,4.62S212.72,114,210.64,114Zm0,4.53a9.15,9.15,0,1,0-9.15-9.15A8.87,8.87,0,0,0,210.64,118.52Zm-30.92-10.28v-3.49h4.18v9.18h-5.48A12.11,12.11,0,0,0,179.72,108.24Zm9.11,5.69V100.67H174.94v7.45a10,10,0,0,1-1.42,5.81h-1.88v8.17h4.27v-4h11.32v4h4.36v-8.17ZM161,114c-2.07,0-4-1.66-4-4.62s2-4.62,4-4.62,4.09,1.67,4.09,4.62S163,114,161,114Zm0,4.53a9.15,9.15,0,1,0-9.15-9.15A8.87,8.87,0,0,0,161,118.52Zm-27.88-.44h5V104.82h5.44v13.26h5V100.67h-15.5Zm388.24-44h4.87l6.32-10.06h.07V74.11h4.65V56.73h-4.69L526,66.91H526V56.73h-4.65ZM535.2,48.93h-3.58c0,1.92-.75,3-2.45,3s-2.45-1-2.45-3h-3.59c0,4,2.71,5.66,6,5.66S535.2,52.92,535.2,48.93ZM506,63.8a4.19,4.19,0,0,1,4-3.59c1.85,0,3.26,1.32,3.3,3.59Zm12.06,1.32c0-5.82-3.61-8.87-8-8.87-4.84,0-8.74,3.68-8.74,9.21,0,5.28,3.52,9.09,9.65,9.09A12,12,0,0,0,517,73V68.86a10.21,10.21,0,0,1-5.44,1.73c-2.64,0-4.81-1.29-5.47-3.78H518A9.73,9.73,0,0,0,518.07,65.12Zm-26.71,9.43c4.68,0,7.54-2.08,7.54-5.32a4.31,4.31,0,0,0-3.14-4.08l0,0a4.5,4.5,0,0,0,2.64-4.06c0-3-2.58-4.81-7.17-4.81a12.48,12.48,0,0,0-5.78,1.32v4.21a10.1,10.1,0,0,1,5.31-1.5c1.79,0,2.77.53,2.77,1.54s-1,1.79-2.77,1.79H488V67h2.73c2,0,3.21.66,3.21,1.73s-1,1.79-2.77,1.79a10.23,10.23,0,0,1-6-2v4.56A12.82,12.82,0,0,0,491.36,74.55Zm-7.48-17.86h-5.16L475,68.17h-.12l-3.74-11.48h-5.38l6.57,17-2.95,7.07h5ZM443.27,74.11H448l.6-10.47h.1l3.39,10.28h3.65l3.39-10.25h.13l.6,10.44h4.77L462.7,56.73h-5.16L454,67.16H454l-3.49-10.43h-5.38ZM430.82,66H440V62.16h-9.15Zm-14.27-1.76V60.78h4.18V70h-5.47A12.28,12.28,0,0,0,416.55,64.27ZM425.67,70V56.69h-13.9v7.45A10.11,10.11,0,0,1,410.36,70h-1.89v8.17h4.28v-4h11.31v4h4.37V70ZM397.79,70c-2.08,0-4.05-1.66-4.05-4.62s2-4.62,4.05-4.62,4.09,1.67,4.09,4.62S399.86,70,397.79,70Zm0,4.53a9.15,9.15,0,1,0-9.15-9.15A8.86,8.86,0,0,0,397.79,74.55ZM377.14,70c-2.33,0-4-1.92-4-4.62s1.7-4.62,4.06-4.62,4.08,1.92,4.08,4.59S379.52,70,377.14,70Zm-9,10.69h5V71.56a6.42,6.42,0,0,0,5.47,3c4.08,0,7.7-3.56,7.7-9.15s-3.74-9.15-7.8-9.15a6.69,6.69,0,0,0-5.69,3.11l-.5-2.67h-4.21ZM355.73,70c-2.07,0-4.05-1.66-4.05-4.62s2-4.62,4.05-4.62,4.09,1.67,4.09,4.62S357.81,70,355.73,70Zm0,4.53a9.15,9.15,0,1,0-9.15-9.15A8.87,8.87,0,0,0,355.73,74.55ZM334,74.11h5V60.84h6.45V56.69H334ZM310.22,66H322.1V62.16H310.22Zm-10.08,8.08L294,65.05l6-8.36h-5.56l-5.34,8v-8h-5V74.11h5V65.68l5.34,8.43ZM271.25,65.4a4.55,4.55,0,0,1,4.8-4.62,7.6,7.6,0,0,1,4.38,1.32V57.48a10.24,10.24,0,0,0-5.13-1.23,9.15,9.15,0,1,0,0,18.3,11.28,11.28,0,0,0,5.13-1.2V68.73A7.25,7.25,0,0,1,276.05,70,4.54,4.54,0,0,1,271.25,65.4Zm-24.08,8.71h5V67.57h5.69v6.54h5V56.69h-5v6.73H252.2V56.69h-5Zm-20.12,0h4.87l6.32-10.06h.06V74.11H243V56.73h-4.69l-6.51,10.18h-.06V56.73h-4.65Zm-20.12,0h4.88l6.32-10.06h.06V74.11h4.65V56.73h-4.68l-6.51,10.18h-.06V56.73h-4.66ZM194.46,70c-2.33,0-4-1.92-4-4.62s1.7-4.62,4.06-4.62,4.08,1.92,4.08,4.59S196.84,70,194.46,70Zm-9,10.69h5V71.56a6.45,6.45,0,0,0,5.48,3c4.08,0,7.7-3.56,7.7-9.15s-3.74-9.15-7.8-9.15a6.67,6.67,0,0,0-5.69,3.11l-.5-2.67h-4.21ZM172.23,70c-2.38,0-4.15-2-4.15-4.62s1.77-4.62,4.15-4.62,4.06,1.92,4.06,4.62S174.56,70,172.23,70Zm-1.48,4.53a6.52,6.52,0,0,0,5.72-3.12l.51,2.68h4.24V56.69H177l-.51,2.67a6.6,6.6,0,0,0-5.72-3.11c-3.92,0-7.73,3.65-7.73,9.21S166.83,74.55,170.75,74.55ZM139,57.76h.1l5.06,16.35h4.37l5.09-16.41h.13l2,16.41h4.91l-3.36-23.45H151.4l-4.85,15.68h-.06l-4.93-15.68h-6.07l-3.36,23.45H137Z"/></g></g></g></svg>