<svg xmlns="http://www.w3.org/2000/svg" viewBox="0 0 373.72 207.54"><defs><style>.cls-1{fill:#009fe3;}.cls-2{fill:#fff;}</style></defs><g id="Layer_2" data-name="Layer 2"><g id="Layer_1-2" data-name="Layer 1"><path class="cls-1" d="M73.48,86.47c11.79-8.84,31.18-15.31,50.24-16.92,17.26-1.46,34.58,1,46.43,9.25,42.52,29.49,66.68,15.43,87.85,3.1,10-5.8,19.36-11.27,30-12.87L290,82c-8.26,1.24-16.59,6.09-25.43,11.23-24.52,14.27-52.5,30.56-101.83-3.66-9.13-6.34-23.38-8.18-37.94-7C108,84,91.21,89.5,81.32,96.92Z"/><path class="cls-1" d="M73.48,52C85.27,43.11,104.66,36.64,123.72,35c17.26-1.46,34.58,1,46.43,9.25,42.52,29.49,66.68,15.42,87.85,3.1,10-5.8,19.36-11.27,30-12.88l1.95,13c-8.26,1.25-16.59,6.09-25.43,11.24C240,73,212.06,89.27,162.73,55c-9.13-6.33-23.38-8.17-37.94-6.94C108,49.51,91.21,55,81.32,62.41Z"/><path class="cls-1" d="M73.48,17.44C85.27,8.6,104.66,2.13,123.72.52c17.26-1.45,34.58,1,46.43,9.25,42.52,29.5,66.68,15.43,87.85,3.11C268,7.07,277.36,1.61,288,0L290,13c-8.26,1.24-16.59,6.09-25.43,11.24C240,38.47,212.06,54.75,162.73,20.53c-9.13-6.33-23.38-8.18-37.94-7C108,15,91.21,20.47,81.32,27.89Z"/><path class="cls-2" d="M333.56,206.09h40.16V193.56H347.55v-14h23.94V168H347.55v-13.3h26.17V142.07H333.56Zm-43.34-11.33c-9.78,0-19-7.47-19-20.68s9.18-20.6,19-20.6c9.62,0,18.8,7.47,18.8,20.6S299.84,194.76,290.22,194.76Zm0,12.78c18.71,0,33-14.07,33-33.46s-14.25-33.47-33-33.47-33.12,14.07-33.12,33.47S271.43,207.54,290.22,207.54Zm-57.49-1.45h13.9v-64h-13.9v25.66H206.56V142.07h-14v64h14V180.43h26.17ZM157,194.33h-6.43V177.17h6.35c7.64,0,11.5,2.74,11.5,8.41S164,194.33,157,194.33Zm.43-28.66h-6.86V153.91h28.06V142.07H136.53v64h21.28c15.54,0,24.72-8.07,24.72-21.11S173.86,165.67,157.38,165.67ZM75.86,194.24H70V174.33h5.67c7.29,0,11.67,3.44,11.67,9.79S82.9,194.24,75.86,194.24Zm32.78-52.17v64h14v-64ZM75.43,162.49H70V142.07H56v64H75.26c15.7,0,26.17-8.67,26.17-22.49S92.16,162.49,75.43,162.49Zm-55.09,13H14V154.85h6.26c7.3,0,12.36,3.52,12.36,10.22S27.55,175.54,20.34,175.54ZM0,206.09H14V188h5.75c17.42,0,27-10.47,27-23.43,0-13.73-10.3-22.48-27.89-22.48H0Z"/></g></g></svg>