<svg xmlns="http://www.w3.org/2000/svg" viewBox="0 0 432.76 107.4"><defs><style>.cls-1,.cls-2{fill:#fff;}.cls-1{fill-rule:evenodd;}</style></defs><g id="Layer_2" data-name="Layer 2"><g id="Layer_1-2" data-name="Layer 1"><g id="Prodigy"><path class="cls-1" d="M68.16,51l2.46.73C71.92,51,76.07,45,76.05,44c-1.43.3-5.39,2.18-6.21,3.28A7.7,7.7,0,0,0,68.16,51m44.18,48.39h8.49C117.46,84.6,108.35,80,109,81.15,98.59,79.43,111.66,89,112.34,99.42Zm-61.55,0h59.89C106,91.4,91.42,82,87.88,83.27c-.66.59-.92.11-1.72-.12a5,5,0,0,0-2.31.1c-6.41,1.18-10.35-.58-16-1.1-2.94,0-3.16,1.46-4.16,3.75a8.64,8.64,0,0,1-3,4.13c-1.2.92-1.75.8-2.13,1.19-.85.26-1.86.75-2.66,1a20.92,20.92,0,0,1-3.28.42C51.54,93.63,51.19,97,50.79,99.42Zm-10.06,0h7.61c-.14-.36-.28-.77-.43-1.22-.21-.61.39-5.08.19-5.83-.68-.07-3.74-2.11-4.57-2a6.79,6.79,0,0,0-1.54.17Zm-37.32,0h33.1a29.5,29.5,0,0,0,1.9-9c0-1,.06-4-.32-4.41a6.89,6.89,0,0,0-1.26-1.6c-.51-.54-1-.67-1.45-1.28A7.27,7.27,0,0,0,32,81c-1.66-.17-3.24,1.68-4,2.86s-1.06.89-1.78,2.2a1.13,1.13,0,0,0-.41.87,1,1,0,0,0-.19.26l-.44.78a.35.35,0,0,1-.05.08l-.27.43a2.8,2.8,0,0,0-.69-.87,2.71,2.71,0,0,0-.92-.72c-.13-.38-.11-.16-.35-.5-.59-.8-.46-1.26-.88-1.6s-.55,0-.67-1c-.21-1.78-.42-1.1-.95-2.3-.41-.94-.8-2.68-1.89-2.94-.48.46-.66,1.37-1.19,1.71a3.55,3.55,0,0,1-.56.86c-.32.37-.23.27-.4.76-1.29,3.76,1.81,2.4,2.07,4.44,0,.78.25,1.37-.35,1.75a1.12,1.12,0,0,1,.44.78c-.3.29-.65.31-.56,1.26-1.89,0-2.15,2.69-6.57.92A9.91,9.91,0,0,1,10,90.33a1.15,1.15,0,0,1-.3-.22C8.28,89,8.55,87.64,8.05,86c-.21-1.07-.27-2.17-.38-3.26L7,79.94a27.15,27.15,0,0,1-2.82-.13S-.31,77.38,0,76.16c.93-.22,1.68,2.08,4.62,2.43A5.42,5.42,0,0,0,7,78.35c0-1.84.43-4.52.14-5.94a6.61,6.61,0,0,1-.38-1.6l-.11-.21a10.23,10.23,0,0,1,0-4c.26-1.38.66-4.29,1.29-5.48a12.65,12.65,0,0,0,.88-1.47c.26-.85-.54-5.22,2.76-11.17,2.62-4.69,5.13-5.92,9.59-8.77,2.75-1.76,2.93-1.39,4.68-2.21.84-.4.35-1,1.39-1.51l.1,0,.08,0,.85-.56c.16-.17.66-1.12.9-1.45a20.3,20.3,0,0,1,4.64-4.61c1.14-.77,1.28-.41,2.05-1.09.49-.43.25-.05.83-.49l.07-.06s0-.05.07-.07c-.28-.34.37-.31-.61-.23a32.33,32.33,0,0,1-4.75-.28c.27-1.14,0-3.19-.71-3.86-.22-.2-1.2-.62-1.52-.83-4.29-2.73-5.39-.08-7.28-2.23-.53-.6-.88-.29-1.08-1.21l-.1-.19a.74.74,0,0,1-.09-.34c-.19-1.55,1.28-1.53,2-1.73s.49-1,1.22-.28c.35.34-.12,0,.27.26a12,12,0,0,1,2.52.87c.64.39.63.68,1.6.65a33.33,33.33,0,0,0,5.7-1.1c1-.46,2.52-.64,3.55-1-.09-2.15.25-1.61,1.15-2.91a4.3,4.3,0,0,1,2.28-1.91c.12-.74-.28-.15.49-1.33l.28-.43c-.13-.9-.31-.64-1.13-.56S40,8.75,39.3,8.09a.92.92,0,0,1-.42-.77c-.09-.88-.36-.31-.86-2.47-.06-.28-1.32-2.55.51-3.57a1.5,1.5,0,0,1,.86-.77A4.74,4.74,0,0,1,42.25.32,1.53,1.53,0,0,0,43.6.22c1.44-.48,3-.19,3.43,1,.29.77-.05.18.7.71a4,4,0,0,0-.25-.66c1.17.54.64.06,1.18.44-.28.22-.17.16-.57.22.2.43.23.26.26.63-.35-.12-.21-.16-.7-.39A15.74,15.74,0,0,1,47.73,4c0,.33,0,.57.31.62s.09,0,.23-.09c.32-.18-.08-.12.27-.22.21.37.39.36.69.65L48.55,5c.21.55.33.23.12.61-.37-.35-.07-.4-.65-.6l-.35-.08c.06.65.26.14.25,1.1,0,.7-.17.89.09,1.48.39,0,.25-.09.39-.16a1.71,1.71,0,0,0,.28-.18l.59.57c-.12.08.07,0-.23.1h-.39c.15.51.25.33.05.63-.1-.22-.11-.36-.38-.52l-.66-.2.47,2.6c.51,0,.4-.27.67-.36a.76.76,0,0,0,.27.34,2,2,0,0,0,.35.26c-.11.08,0,.06-.24.11l-.38,0c.19.51.28.22.13.62-.47-.42,0-.47-.84-.67a25.23,25.23,0,0,0,.17,3.2c1.17,0,.06-.09.62-.33a4.53,4.53,0,0,0,.68.7l-.62.09c.13.44.2.31.12.56-.68-.35.06-.44-.78-.67-.41.52-.09,2.48-.45,3.63-.29,1-.24-.58-.63,1.85l-.63.27-.26,2.16c-1,.06-1.81-.5-2.39-.46-.49,3.78,1.8,4.32,1.33,8.59,0,.6-.09,1.08-.09,1.7,0,.15,0,.65,0,.77.11.79,0,.46.48.55,2.71-.69,5.56-.91,8.3-1.65l4.82-1.3,2.69-1.19c.43-.4,3.38-1.55,4.9-2.55C69.62,24.4,72.8,11.5,72.8,11.5c.3-.47.65-.17.65-.17.38,1-1.13,8.17-1.4,9.72A35.23,35.23,0,0,1,71,25.71c-.44,1.39-1.22,3.47-.19,4.58,1.55,1.66,7.16-1.07,8.42-2a22.5,22.5,0,0,0,4.37-4.24c.91-1.14.86-1.34,1.57-1.25.22,1.16-2.61,4.85-3.55,5.79a11.77,11.77,0,0,1-.93,1c-.15.14-.32.3-.46.46l-.49.55-.52.39c-.2.14-.4.24-.65.4a27.18,27.18,0,0,1-5.07,2.49l-2.38,1.39c-.91.71-1,1.81-.44,3,1,2.21,2.9,1.92,5.65,2,5.41.17,10.63-.5,14.56-4.4.12-.12,1-.9,1.06-.93.69-.34.85.26.45.77a12.18,12.18,0,0,1-2.19,2.35,28.81,28.81,0,0,1-5.35,3.52c-1.72.79-3.27,1.22-4.92,1.85-2.3.88-1.48-.2-2.45,2a36.92,36.92,0,0,1-3.11,5.88,4.74,4.74,0,0,1-1.07,1.36.67.67,0,0,1-.08.29,5.6,5.6,0,0,0,1.08.27l3.91,1c1.75.47,3.46.88,5.26,1.26,5,1.05,6.31,1.47,11.61,1.43a17.74,17.74,0,0,1,10,3,14.66,14.66,0,0,1,5,4.74c.47.7.77,1.41,1.2,2.11a22.57,22.57,0,0,1,1,3.35c.2,1.24.23,2.46.47,3.7a12.64,12.64,0,0,0,1.1,3,54.44,54.44,0,0,1,10.56,22.54H129v6.51H3.41ZM48.68,7.14h0C48,7.23,48.91,6.94,48.68,7.14Z"/><path class="cls-2" d="M423.43,100.74l9.33-7.3V90.71l-9.33-7.26v4.77l5.22,3.87L423.43,96Zm-9.46,0,9.34-7.3V90.71L414,83.45v4.77l5.22,3.87L414,96Zm-11.34-8.83a2.13,2.13,0,0,1-2.42-2.27,2.18,2.18,0,0,1,2.45-2.26H405v4.53Zm.25-8.52c-5,0-7.48,2.57-7.48,5.84a5.62,5.62,0,0,0,4.21,5.47l-5,6.1h5.75L405,93.92v6.88h5V83.39ZM375.94,100.8h4.87l6.32-10.06h.06V100.8h4.65V83.42h-4.68L380.65,93.6h-.06V83.42h-4.65Zm-12.48-4.09c-2.33,0-4-1.91-4-4.62s1.69-4.62,4.05-4.62,4.09,1.92,4.09,4.59S365.85,96.71,363.46,96.71Zm-9,10.69h5V98.25a6.41,6.41,0,0,0,5.47,3c4.08,0,7.7-3.55,7.7-9.15s-3.74-9.15-7.79-9.15a6.71,6.71,0,0,0-5.7,3.12l-.5-2.67h-4.21ZM342.06,96.71c-2.08,0-4.06-1.66-4.06-4.62s2-4.62,4.06-4.62,4.08,1.67,4.08,4.62S344.13,96.71,342.06,96.71Zm0,4.53a9.15,9.15,0,1,0-9.15-9.15A8.87,8.87,0,0,0,342.06,101.24ZM324.21,77.35v18.8H318V77.35h-5.13v18.8h-6.25V77.35h-5.12V100.8h27.84V77.35ZM281.59,91.91a2.13,2.13,0,0,1-2.42-2.27,2.18,2.18,0,0,1,2.45-2.26h2.32v4.53Zm.24-8.52c-5,0-7.48,2.57-7.48,5.84a5.63,5.63,0,0,0,4.22,5.47l-5,6.1h5.75l4.59-6.88v6.88h5V83.39Zm-20,13.32c-2.38,0-4.14-1.94-4.14-4.62s1.76-4.62,4.14-4.62,4.06,1.92,4.06,4.62S264.14,96.71,261.81,96.71Zm-1.48,4.53a6.53,6.53,0,0,0,5.72-3.11l.51,2.67h4.24V83.39h-4.24l-.51,2.67a6.61,6.61,0,0,0-5.72-3.12c-3.92,0-7.73,3.65-7.73,9.22S256.41,101.24,260.33,101.24Zm-18.92-.44h5V87.53h4.9V83.39h-14.8v4.14h4.87Zm-15.24-4.09c-2.08,0-4.06-1.66-4.06-4.62s2-4.62,4.06-4.62,4.08,1.67,4.08,4.62S228.24,96.71,226.17,96.71Zm0,4.53A9.15,9.15,0,1,0,217,92.09,8.87,8.87,0,0,0,226.17,101.24Zm-29-.29c5.34,0,7.66-2.29,7.66-7.72v-5.7h3.93V100.8h5V83.39H199.89v9.14c0,3-.76,4.09-2.73,4.09ZM186.4,96.71c-2.07,0-4.05-1.66-4.05-4.62s2-4.62,4.05-4.62,4.09,1.67,4.09,4.62S188.48,96.71,186.4,96.71Zm0,4.53a9.15,9.15,0,1,0-9.14-9.15A8.87,8.87,0,0,0,186.4,101.24ZM170.47,88.73a5.9,5.9,0,0,0,3.77-5.44c0-4-3-6.47-8.52-6.47a14.06,14.06,0,0,0-6.75,1.6V83.1a11,11,0,0,1,5.94-1.79c2.67,0,4.3,1.07,4.3,2.8s-1.38,2.73-3.89,2.73H162V91h3c3,0,4.4.85,4.4,2.71s-1.63,3.11-4.14,3.11a10.94,10.94,0,0,1-6.61-2.42v5a13.21,13.21,0,0,0,7.17,1.91c5.38,0,8.8-2.89,8.8-7.16A5.5,5.5,0,0,0,170.47,88.73Zm-15-5.28-9.34,7.29v2.73l9.34,7.27V96l-5.22-3.87,5.22-3.87Zm-9.47,0-9.33,7.29v2.73l9.33,7.27V96l-5.21-3.87L146,88.22ZM315.84,52.74c-2.38,0-4.14-2-4.14-4.62s1.76-4.62,4.14-4.62,4.06,1.92,4.06,4.62S318.17,52.74,315.84,52.74Zm-1.47,4.52a6.53,6.53,0,0,0,5.72-3.11l.5,2.67h4.24V39.41h-4.24l-.5,2.67A6.61,6.61,0,0,0,314.37,39c-3.93,0-7.74,3.65-7.74,9.21S310.44,57.26,314.37,57.26ZM295.1,52.74c-2.33,0-4-1.92-4-4.62s1.7-4.62,4.06-4.62,4.09,1.92,4.09,4.58S297.49,52.74,295.1,52.74Zm-9,10.69h5V54.28a6.43,6.43,0,0,0,5.47,3c4.08,0,7.7-3.55,7.7-9.14S300.57,39,296.52,39a6.71,6.71,0,0,0-5.7,3.11l-.5-2.67h-4.21Zm-2.39-24h-5.15l-3.75,11.47h-.12L271,39.41h-5.38l6.57,16.94-2.95,7.08h5ZM254.8,56.82h5V43.56h4.9V39.41h-14.8v4.15h4.87Zm-23,0h5V43.56h5.44V56.82h5V39.41h-15.5Zm-10.12-3.55H219.6v-5h2.16a2.24,2.24,0,0,1,2.33,2.45A2.38,2.38,0,0,1,221.67,53.27Zm.72-8.55H219.6V39.41h-5V56.82H222c4,0,7.05-2.54,7.05-6.06S226.29,44.72,222.39,44.72ZM193.73,57c5.34,0,7.66-2.29,7.66-7.73V43.56h3.94V56.82h5V39.41h-13.9v9.15c0,3-.75,4.08-2.73,4.08Zm-.16-17.57h-5.15l-3.75,11.47h-.12l-3.74-11.47h-5.38L182,56.35l-2.95,7.08h5ZM174.84,56.82l-6.16-9,6-8.36h-5.57l-5.34,8v-8h-5V56.82h5V48.4l5.34,8.42Zm-19.62-1.1V50.57a9.82,9.82,0,0,1-5.91,2.07,7.31,7.31,0,0,1-7.41-7.54,7.27,7.27,0,0,1,7.41-7.51,9.9,9.9,0,0,1,5.91,1.95V34.45a13.27,13.27,0,0,0-6.44-1.61A11.88,11.88,0,0,0,136.71,45.1a11.88,11.88,0,0,0,12.07,12.26A13.14,13.14,0,0,0,155.22,55.72Z"/></g></g></g></svg>