<svg xmlns="http://www.w3.org/2000/svg" viewBox="0 0 313.38 215.07"><defs><style>.cls-1{fill:#009fe3;}.cls-2{fill:#fff;}</style></defs><g id="Layer_2" data-name="Layer 2"><g id="Layer_1-2" data-name="Layer 1"><g id="Lakes"><path class="cls-1" d="M0,88.36c12.05-9,31.86-15.65,51.34-17.29C69,69.58,86.68,72.13,98.79,80.53c43.44,30.13,68.14,15.76,89.77,3.16,10.19-5.92,19.78-11.51,30.7-13.15l2,13.24c-8.44,1.27-17,6.22-26,11.48-25,14.58-53.65,31.23-104.06-3.74-9.33-6.48-23.89-8.36-38.76-7.1C35.27,85.87,18.12,91.46,8,99Z"/><path class="cls-1" d="M0,53.09c12.05-9,31.86-15.64,51.34-17.29C69,34.31,86.68,36.86,98.79,45.26c43.44,30.13,68.14,15.76,89.77,3.17,10.19-5.93,19.78-11.52,30.7-13.16l2,13.24c-8.44,1.27-17,6.22-26,11.48-25,14.59-53.65,31.23-104.06-3.74-9.33-6.47-23.89-8.36-38.76-7.1C35.27,50.6,18.12,56.19,8,63.77Z"/><path class="cls-1" d="M0,17.83C12.05,8.79,31.86,2.18,51.34.53,69-.95,86.68,1.59,98.79,10c43.44,30.13,68.14,15.76,89.77,3.17C198.75,7.23,208.34,1.64,219.26,0l2,13.24c-8.44,1.27-17,6.23-26,11.48C170.21,39.31,141.61,56,91.2,21c-9.33-6.47-23.89-8.36-38.76-7.1C35.27,15.33,18.12,20.92,8,28.5Z"/><path class="cls-2" d="M257.22,215.07h13.35L300,171.67h.08v43.4h13.27V151.2H299.94l-29.37,42.9h-.08V151.2H257.22Zm44.95-85h-9.76c0,5.22-2.06,8.05-6.68,8.05s-6.68-2.83-6.68-8.05h-9.76c-.09,10.87,7.36,15.41,16.44,15.41S302.17,140.93,302.17,130.06Zm-84.34,35.7,8,22.26H209.79Zm32.28,49.31L225.88,151.2H209.79L185.9,215.07h14.56l5.48-15.58h23.88l5.65,15.58Zm-85.44,0h13.87V151.2H164.67v25.6H138.55V151.2h-14v63.87h14V189.48h26.12ZM85.21,165.76,93.27,188H77.17Zm32.28,49.31L93.27,151.2H77.17L53.28,215.07H67.84l5.48-15.58H97.2l5.65,15.58Zm-92,0H39.33V164H58V151.2H6.71V164H25.46Z"/></g></g></g></svg>