<svg xmlns="http://www.w3.org/2000/svg" viewBox="0 0 445.74 107.14"><defs><style>.cls-1,.cls-2{fill:#fff;}.cls-1{fill-rule:evenodd;}</style></defs><g id="Layer_2" data-name="Layer 2"><g id="Layer_1-2" data-name="Layer 1"><g id="Prodigy"><path class="cls-1" d="M55.32,31.11,50.16,25c-.5.32-.26.22-.77.92-.34.46-.55.57-.89,1L39.3,40c-.61.91-1.09,1.3-1.7,2.19L23.53,61.8c-.57.75-1,1.37-1.57,2.14l-6.2,8.58c-.52.71-1,1.51-1.48,2.24s-1.08,1.29-1.7,2.2L1.66,92.12.83,93.25,0,94.57l142.92,1.81a13.29,13.29,0,0,0-1.1-2.06,21.15,21.15,0,0,1-1.2-2.14,20.68,20.68,0,0,0-1.13-2,15.12,15.12,0,0,1-1.2-2.14l-5.87-10.34c-4.09-7-9.38-16-13.08-22.89-.44-.83-.65-1.28-1.11-2l-12.5-21.94c-.23-.38-.48-.63-.62-.91L93.79,39.93c-.85-2.1-6.32-12.36-7.68-15-.87-1.67-1.74-3.44-2.59-5S73.87.72,73,0L70.9,3.87c-.83,1.38-1.45,2.52-2.29,3.91L58.67,25.16c-.57.86-.66,1.27-1.09,2-.78,1.39-1.57,2.49-2.26,3.92M68.05,15.2C68.93,13,73,6.13,73.28,4.72l.68.92c.1.18.33.67.51,1.05,2,4.26,6,11.65,8.38,16.25.45.89.5,1.25,1,2.17L94.38,45.48c.72,1.52,1.35,2.49,2.07,4l2.13,4.14c.75,1.44,1.26,2.49,2.06,4L107,70.2l-8-9.87a11.45,11.45,0,0,0-1.12-1.46c-1.51-1.58-7.41-9.48-9.08-11.38-.67-.75-1.58-1.85-2.24-2.72l-2.23-3c-2.89-3.92-9.6,1.67-12.34,4.21L66.6,50.92c.1-1.45.43-2.75.63-4.19s.35-2.9.54-4.33C68.71,35.23,70,21.19,68.05,15.2Zm-30.76,47c0-5.12.84-11.11,3.36-14.61l4.43-6.77a25.59,25.59,0,0,0,2.15-3.31,34.49,34.49,0,0,0,1.86-3.75,21.9,21.9,0,0,0,.77-2.29,11.19,11.19,0,0,1,.72-2.33L54.12,34c-.62,1.86-7.1,11.71-8.34,14Zm67.56-28.26c.77.41,3.71,6.31,4.4,7.63L120.84,63A17.21,17.21,0,0,1,122,65.17c-.74-.42-.9-.81-1.5-1.61-.29-.37-.46-.5-.71-.8l-6-7.58c-3.17-4.08-3.53.94-7.32-3.1-1.15-1.22-1.29-2.29-1.64-4.83C104.4,44.37,103.77,36.17,104.85,33.94Z"/><path class="cls-2" d="M262.53,87.05c-1.92,0-3.14-1-3.14-2.94,0-1.79,1.18-2.94,3.18-2.94h3v5.88Zm.32-11c-6.52,0-9.7,3.34-9.7,7.58a7.29,7.29,0,0,0,5.46,7.09l-6.44,7.91h7.46l5.95-8.93v8.93h6.52V76ZM241.17,94h-2.69V87.53h2.82a2.91,2.91,0,0,1,3,3.18A3.09,3.09,0,0,1,241.17,94Zm.94-11.08h-3.63V76H232V98.58h9.58c5.21,0,9.13-3.3,9.13-7.87S247.16,82.89,242.11,82.89ZM216,93.52a5.32,5.32,0,0,1-5.38-5.66A5.36,5.36,0,1,1,216,93.52ZM218,77.06A9.53,9.53,0,0,0,210,81.17c.48-5.09,2.72-7.49,7.17-8.39,2.24-.45,5.46-.93,8.8-1.34v-6c-3.91.53-7.78,1.06-10.55,1.75-7.38,1.83-11.21,6.84-11.25,17,0,9.62,4.36,14.92,12.06,14.92,6.77,0,11.41-4.57,11.41-11.12C227.68,81.83,223.6,77.06,218,77.06ZM201.88,76H195.2l-4.85,14.88h-.16L185.34,76h-7l8.52,22-3.83,9.17h6.48Zm-31.26,6.93a7.65,7.65,0,0,0,4.9-7.05c0-5.22-3.88-8.4-11.05-8.4a18.26,18.26,0,0,0-8.76,2.08v6.07a14.32,14.32,0,0,1,7.7-2.32c3.47,0,5.59,1.39,5.59,3.63s-1.8,3.54-5.06,3.54h-4.28v5.38h3.91c3.92,0,5.71,1.11,5.71,3.51s-2.12,4-5.38,4a14,14,0,0,1-8.55-3.14v6.48a17.09,17.09,0,0,0,9.28,2.49c7,0,11.42-3.75,11.42-9.29A7.13,7.13,0,0,0,170.62,82.93ZM430.1,28.2a5.43,5.43,0,0,1,5.17-4.64c2.4,0,4.24,1.71,4.28,4.64Zm15.64,1.71c0-7.54-4.68-11.49-10.43-11.49C429,18.42,424,23.19,424,30.36c0,6.85,4.56,11.78,12.51,11.78a15.54,15.54,0,0,0,7.87-2V34.76A13.1,13.1,0,0,1,437.31,37c-3.43,0-6.24-1.67-7.09-4.89h15.36A12.27,12.27,0,0,0,445.74,29.91ZM401,37h-2.49V30.52h2.57a2.92,2.92,0,0,1,3,3.18A3.06,3.06,0,0,1,401,37Zm12.22-18V41.57h6.52V19ZM402,25.88h-3.47V19H392V41.57h9.37c5.18,0,9.13-3.3,9.13-7.87S407,25.88,402,25.88ZM366.12,41.57h6.51V33.09H380v8.48h6.52V19H380v8.72h-7.38V19h-6.51ZM349.57,30.28a5.9,5.9,0,0,1,6.23-6A9.94,9.94,0,0,1,361.47,26V20a13.27,13.27,0,0,0-6.65-1.59A11.55,11.55,0,0,0,343,30.24a11.55,11.55,0,0,0,11.85,11.9,14.65,14.65,0,0,0,6.65-1.55v-6a9.45,9.45,0,0,1-5.67,1.67C352.42,36.27,349.57,34,349.57,30.28ZM324.38,28.2c.62-2.85,2.73-4.64,5.18-4.64s4.24,1.71,4.28,4.64ZM340,29.91c0-7.54-4.69-11.49-10.43-11.49-6.28,0-11.33,4.77-11.33,11.94,0,6.85,4.56,11.78,12.51,11.78a15.59,15.59,0,0,0,7.87-2V34.76a13.12,13.12,0,0,1-7,2.24c-3.43,0-6.24-1.67-7.1-4.89h15.37A12.27,12.27,0,0,0,340,29.91Zm-36.47,6.6a5.32,5.32,0,0,1-5.38-5.66A5.36,5.36,0,1,1,308.9,31,5.18,5.18,0,0,1,303.56,36.51Zm1.95-16.46a9.53,9.53,0,0,0-7.94,4.11c.48-5.09,2.72-7.49,7.17-8.39,2.24-.45,5.46-.94,8.8-1.34v-6C309.63,9,305.76,9.5,303,10.19c-7.38,1.83-11.21,6.84-11.25,17,0,9.62,4.36,14.92,12.06,14.92,6.77,0,11.41-4.57,11.41-11.13C315.21,24.82,311.13,20.05,305.51,20.05ZM272.63,28.2a5.43,5.43,0,0,1,5.17-4.64c2.4,0,4.24,1.71,4.28,4.64Zm15.64,1.71c0-7.54-4.68-11.49-10.43-11.49-6.27,0-11.33,4.77-11.33,11.94,0,6.85,4.56,11.78,12.51,11.78a15.54,15.54,0,0,0,7.87-2V34.76A13.1,13.1,0,0,1,279.84,37c-3.43,0-6.24-1.67-7.09-4.89h15.36A12.27,12.27,0,0,0,288.27,29.91ZM241.86,41.57h6.52V33.09h7.38v8.48h6.51V19h-6.51v8.72h-7.38V19h-6.52ZM222.5,28.81V24.29h5.42v11.9h-7.09A15.85,15.85,0,0,0,222.5,28.81Zm11.82,7.38V19h-18v9.66c0,3.34-.62,5.74-1.83,7.54H212V46.78h5.54V41.57h14.67v5.21h5.66V36.19Zm-36.15.08c-2.68,0-5.25-2.16-5.25-6s2.57-6,5.25-6,5.3,2.16,5.3,6S200.86,36.27,198.17,36.27Zm0,5.87A11.5,11.5,0,0,0,210,30.28a11.86,11.86,0,1,0-23.71,0A11.52,11.52,0,0,0,198.17,42.14ZM175,41.57h6.64V11.17H156.81v30.4h6.64V17.24H175Z"/></g></g></g></svg>