<svg xmlns="http://www.w3.org/2000/svg" viewBox="0 0 315.41 143.31"><defs><style>.cls-1,.cls-2{fill:#fff;}.cls-1{fill-rule:evenodd;}</style></defs><g id="Layer_2" data-name="Layer 2"><g id="Layer_1-2" data-name="Layer 1"><g id="Prodigy"><g id="Sova"><path class="cls-1" d="M20.59,8.14c-1.31-.88-2.16-3.46-2.2-5.07H15C14,3.07,13.3,3,12.26,3c0,2.81.9,6.09,2.71,8,.35.39,1.27,1.51,1.79,1.65a20,20,0,0,1-1.34,2.49,23.65,23.65,0,0,0-2,4.64,29.08,29.08,0,0,0-1.18,9.35c-3.56,2.38-7,9-8.39,12.77-.28.78-.54,1.52-.79,2.28A70.87,70.87,0,0,0,0,65.42c0,3,.06,5.82.28,8.72A120.66,120.66,0,0,0,2.4,88.68c.62,3.07,1.35,6.11,2.08,9,1.28,5.11,2.71,10.11,4.37,15.08.24.73.42,1.37.67,2.11s.45,1.34.69,2.08c1.15,3.45,2.32,6.84,3.65,10.24l1.55,4c.5,1.38,1,2.62,1.57,4,.28.71.53,1.27.81,2,.14.36.27.64.39.94a6,6,0,0,1,.4,1,10.91,10.91,0,0,0,1.42-.59l2.81-1.22a9.68,9.68,0,0,1,1.42-.59,5.71,5.71,0,0,0-.73-2c-.87-1.94-1.59-3.89-2.36-5.87l-3-7.95c-.27-.68-.47-1.28-.7-2s-.48-1.33-.72-2.06c-1.38-4.13-2.76-8.19-4-12.41C10.07,95.14,7.57,85.29,6.6,75.29c-.29-3-.46-6-.47-9a8.8,8.8,0,0,1,.1-1.15c0-.75-.07-1.65,0-2.38.16-1.4.21-3.06.35-4.44a56.85,56.85,0,0,1,3.64-15.7,29.45,29.45,0,0,1,3-5.47c.18-.27.42-.45.5-.74.36.17.78.3,1.15.48l7.56,4a74.59,74.59,0,0,1,7.8,5.51l4.39,3.85,2.83,3a50.24,50.24,0,0,1,4,5.16l1,1.45a1.36,1.36,0,0,1,.31.55H43c.22-.81,4.94-6.65,5.68-7.54.26-.31.55-.51.81-.82A44.47,44.47,0,0,1,53.71,48c.29-.26.6-.48.9-.73l.94-.78L59.3,43.6a81.1,81.1,0,0,1,11.61-6.69c.42-.21.82-.33,1.21-.51L74,39.31c2.82,4.76,4.82,13,5.21,18.82l.38,6.81c0,.56.09.65.1,1.14,0,1.29-.1,2.6-.1,3.84a9.32,9.32,0,0,1,0,1.3c-.07.48,0,.89-.07,1.37-.18,1.62-.29,3.29-.52,4.94a175.23,175.23,0,0,1-3.54,18.29c-.93,3.7-1.9,7.1-3,10.72-.22.75-.45,1.38-.66,2.11-1,3.46-2.26,6.83-3.38,10.22-1,3.09-3.91,10.92-5.25,13.91-.3.68-.51,1.33-.8,2-.13.3-.27.6-.41.93a2.87,2.87,0,0,0-.36,1.08c1.27.3,4.43,2.11,5.66,2.4a5.58,5.58,0,0,1,.36-1c3.17-7.65,6.08-15.44,8.7-23.29l2.63-8.48A187.05,187.05,0,0,0,85,79.18a96.54,96.54,0,0,0,.52-19.61,62.23,62.23,0,0,0-4.44-19.8c-.62-1.43-1.28-2.65-2-4a24.61,24.61,0,0,0-3.87-5.23,10,10,0,0,0-1.65-1.41,28.74,28.74,0,0,0-1.19-9.26,23.68,23.68,0,0,0-1.49-3.77c-.7-1.39-1.38-2.32-1.92-3.35a5.73,5.73,0,0,0,1-.75,9.12,9.12,0,0,0,1.9-2.41A13.55,13.55,0,0,0,73.56,3c-1.09,0-1.85.1-3,.1H67.43a7.49,7.49,0,0,1-2.3,5.17c-.35-.24-.6-.59-1-.86l-2-1.61a38.6,38.6,0,0,0-3.36-2.1A31.38,31.38,0,0,0,44.06,0c-5.6,0-9.43.45-14.49,2.46-.5.2-.79.37-1.26.56A21.13,21.13,0,0,0,24.79,5c-1.28.86-2.46,1.82-3.64,2.79-.26.21-.21.3-.56.39m22.22-2a34.19,34.19,0,0,1,4,.26A30.42,30.42,0,0,1,50.53,7a28.7,28.7,0,0,1,3.28,1A13.13,13.13,0,0,1,56.7,9.48a28.9,28.9,0,0,0-4.24.84,20.64,20.64,0,0,0-6.94,3.41,12.1,12.1,0,0,0-2,1.86c-.17.17-.53.6-.65.69-.32-.23-.89-1.05-1.22-1.36l-1.4-1.19a21.24,21.24,0,0,0-9-3.9A13.05,13.05,0,0,0,29,9.48a11.58,11.58,0,0,1,2.82-1.39A30.71,30.71,0,0,1,42.81,6.13ZM27.58,18.39a3,3,0,0,1,.79-2c.7-.75.81-.74,1.92-.53a18.68,18.68,0,0,1,2.19.59c.52.17.55.08.79.55a3,3,0,0,1-4.8,3.47,2.75,2.75,0,0,1-.6-.84A4.77,4.77,0,0,1,27.58,18.39Zm24.62.38a3.21,3.21,0,0,1,.29-1.72c.2-.4.35-.46.84-.6a20.59,20.59,0,0,1,2.29-.58c1.12-.19,1.21-.2,1.92.63a3,3,0,1,1-5.34,2.27Zm-15.52,0a8.61,8.61,0,0,1,3.16,5.76,18.19,18.19,0,0,0,.38,2.68c.58,2.9,1.49,5.54,2.26,8.27a7,7,0,0,1,.33,1.2l.86-2.29c.67-2.43,1.37-4.51,1.91-7.1A12.69,12.69,0,0,0,46,24.71a7.62,7.62,0,0,1,.79-2.95,10.2,10.2,0,0,1,1.55-2.28,2.75,2.75,0,0,1,.82-.71,7.68,7.68,0,0,0,15.13,2.58,28.93,28.93,0,0,0,.1-4.4l.42.64a20.94,20.94,0,0,1,2.55,8.75c0,.48.09.53.1,1.05,0,1.49,0,3,0,4.5a7.73,7.73,0,0,0-1,.39c-.3.13-.57.28-.89.44l-3.51,1.86c-2.38,1.37-9.33,6-11.76,8.45l-2.16,2a37.55,37.55,0,0,0-2.66,2.71l-2.58,2.87c-.27-.18-.95-1.09-1.27-1.41s-.36-.45-.62-.72a8.64,8.64,0,0,1-.66-.69,47.56,47.56,0,0,0-4-4L31.9,40A78.71,78.71,0,0,0,23,34.13l-.86-.48c-.6-.33-1.19-.6-1.79-.89-.29-.15-.56-.3-.89-.45a7.11,7.11,0,0,0-1-.42c0-4.74-.13-7.89,1.52-12L21,17.56a2.69,2.69,0,0,1,.19-.38,3.27,3.27,0,0,1,.25-.32c0,3.79-.21,5.23,1.44,7.56a7.6,7.6,0,0,0,5.84,3.16,7.49,7.49,0,0,0,5.82-2.22c1.78-1.78,2.23-3.49,2.23-6.11A1.7,1.7,0,0,0,36.68,18.77Z"/><path class="cls-1" d="M12.26,68.29a70.12,70.12,0,0,0,.68,11.2,155.62,155.62,0,0,0,4.7,20.58l2,6.42c.34,1,.69,2.1,1.05,3.16,1.52,4.58,3.23,9.42,5.13,13.83a12.56,12.56,0,0,1,.61,1.51l4.19-4.14,0,8.74c0,.6.1.79-.21,1.13-.64.69-4.56,4.67-5.06,5l4.33,4.38,4-3.93,4,3.93,4.41-4.36c-.73-.5-3.21-3.16-4-4-.25-.25-1.27-1.1-1.27-1.42V122.6H49v7.75c0,.33-3.43,3.58-3.9,4.05a13,13,0,0,1-1.37,1.32l4.33,4.38,4-3.93,4,3.93,4.41-4.36c-.52-.35-4.45-4.33-5.08-5-.41-.44-.21-1.64-.21-2.28v-7.57L59.36,125a31,31,0,0,1,1.23-3c.41-1,.78-2,1.19-3s.75-2.06,1.15-3.07c1.21-3.07,3.39-9.56,4.25-12.6l1.93-6.5c2.09-7.41,4.45-17.58,4.45-25.05,0-5.36-.09-12.07-1.62-17-.38-1.21-1.34-4.12-2.31-4.77-.46.31-2.57,2.46-3.32,3.09-.38.31-.71.9-1.18,1l.63,1.66c.21.61.35,1.21.5,1.8a41.72,41.72,0,0,1,1,7.16,7.88,7.88,0,0,0,.05,1.1,17,17,0,0,1,0,2.26l0,5.5c-.16,1.07-.15,2-.29,3.06a112.72,112.72,0,0,1-2,11.36c-.45,1.81-.83,3.68-1.36,5.45-.11.4-.2.84-.33,1.29-1.14,3.91-2.28,7.81-3.57,11.66L57,113.88l-5.73-5.67c-1.28,2.39-2.45,4.87-3.66,7.3-.12.24-.35,1-.67,1h-8c-.35,0-1-1.59-1.15-1.92l-3.16-6.32-5.73,5.67c-.09-.65-1.57-4.12-1.83-4.92a187.11,187.11,0,0,1-7.28-26.43,59.42,59.42,0,0,1-1.06-7.27c0-.46-.06-1.11-.13-1.6a60,60,0,0,1,1-16c.15-.62.29-1.22.49-1.81l.66-1.73a26,26,0,0,1-2.81-2.56A22.46,22.46,0,0,0,16.19,50c-1.45,1-2.78,6.43-3.06,8a64.39,64.39,0,0,0-.87,10.24"/><path class="cls-1" d="M42.81,73.56H43c.14-.52,5.36-7.91,6-9.2H36.78c.65,1.23,5.9,8.7,6,9.2"/><path class="cls-1" d="M58.14,73.56h.19a21.27,21.27,0,0,1,1.45-2.28l3.07-4.6.77-1.15a11,11,0,0,0,.74-1.17H52.1c.65,1.23,5.9,8.7,6,9.2"/><path class="cls-1" d="M52,85.82h.19a5,5,0,0,1,.69-1.13l3.83-5.75.77-1.15a11,11,0,0,0,.74-1.17H46l3,4.56c.28.41,2.93,4.27,3,4.64"/><path class="cls-1" d="M33.62,85.82h.19a5.35,5.35,0,0,1,.69-1.13l2.3-3.45,1.53-2.3.77-1.15a11,11,0,0,0,.74-1.17H27.58l5.31,8a6.06,6.06,0,0,1,.73,1.19"/><path class="cls-1" d="M42.81,98.08H43c.11-.41,4.1-6.24,4.52-6.88L49,88.88H36.78c.39.74,1,1.53,1.47,2.26s4.46,6.54,4.56,6.94"/><path class="cls-1" d="M27.49,73.56h.19a5.35,5.35,0,0,1,.69-1.13l5.34-8.07H21.45L26,71.22l.77,1.15a6.06,6.06,0,0,1,.73,1.19"/><path class="cls-2" d="M303.75,132.8c-3.09,0-5.38-2.53-5.38-6s2.29-6,5.38-6,5.26,2.48,5.26,6-2.24,6-5.26,6m-1.91,5.87a8.46,8.46,0,0,0,7.41-4l.65,3.47h5.51V115.52H309.9l-.65,3.46a8.56,8.56,0,0,0-7.41-4c-5.1,0-10,4.73-10,11.94C291.81,133.94,296.74,138.67,301.84,138.67ZM286,132.72v-17.2h-6.52v17.2h-6.8v-17.2h-6.52V138.1h17.8v5.21h5.63V132.72Zm-45.92,5.38h6.31l8.2-13h.08v13h6V115.56H254.6l-8.43,13.2h-.08v-13.2h-6Zm-25.88,0h6.52v-8.48h7.38v8.48h6.52V115.52h-6.52v8.72H220.7v-8.72h-6.52Zm-17.11-5.3c-3.1,0-5.38-2.53-5.38-6s2.28-6,5.38-6,5.26,2.48,5.26,6S200.08,132.8,197.07,132.8Zm-1.92,5.87a8.49,8.49,0,0,0,7.42-4l.65,3.47h5.5V115.52h-5.5l-.65,3.46a8.59,8.59,0,0,0-7.42-4c-5.09,0-10,4.73-10,11.94C185.13,133.94,190.06,138.67,195.15,138.67Zm-25.06-11.86a5.9,5.9,0,0,1,6.23-6,9.92,9.92,0,0,1,5.67,1.71v-6a13.24,13.24,0,0,0-6.65-1.59,11.86,11.86,0,0,0,0,23.72,14.62,14.62,0,0,0,6.65-1.55v-6a9.41,9.41,0,0,1-5.67,1.67C172.94,132.8,170.09,130.56,170.09,126.81ZM138.67,138.1H145l8.19-13h.08v13h6V115.56h-6.07l-8.44,13.2h-.08v-13.2h-6Zm-12.67,0h6.64V107.7H107.82v30.4h6.65V113.77H126ZM268.51,69.55c-1.92,0-3.14-1-3.14-2.93,0-1.79,1.18-2.94,3.18-2.94h3v5.87Zm.32-11c-6.51,0-9.69,3.34-9.69,7.58a7.29,7.29,0,0,0,5.45,7.09l-6.43,7.91h7.45l5.95-8.93v8.93h6.53V58.51ZM242.88,75.79c-3.1,0-5.38-2.53-5.38-6s2.28-6,5.38-6,5.26,2.48,5.26,6S245.89,75.79,242.88,75.79ZM241,81.66a8.48,8.48,0,0,0,7.42-4l.65,3.47h5.5V58.51H249L248.38,62a8.58,8.58,0,0,0-7.42-4c-5.09,0-10,4.73-10,11.94C230.94,76.93,235.87,81.66,241,81.66Zm-11-.57-8-11.74,7.75-10.84H222.5l-6.93,10.31V58.51h-6.51V81.09h6.51V70.16l6.93,10.93ZM192.51,69.8a5.9,5.9,0,0,1,6.23-6,9.86,9.86,0,0,1,5.67,1.71v-6a13.27,13.27,0,0,0-6.65-1.59,11.86,11.86,0,0,0,0,23.72,14.65,14.65,0,0,0,6.65-1.55v-6a9.45,9.45,0,0,1-5.67,1.67C195.36,75.79,192.51,73.55,192.51,69.8ZM155.22,81.09h6.11l.77-13.58h.13l4.4,13.33h4.73l4.4-13.28h.16l.78,13.53h6.19L180.4,58.55h-6.68l-4.56,13.53h-.08l-4.53-13.53h-7Zm-15-5.3c-2.69,0-5.25-2.16-5.25-6s2.56-6,5.25-6,5.3,2.16,5.3,6S142.87,75.79,140.18,75.79Zm0,5.87A11.5,11.5,0,0,0,152,69.8a11.86,11.86,0,1,0-23.72,0A11.52,11.52,0,0,0,140.18,81.66Zm-25.92-.57h6.61V56.76h8.88V50.69H105.34v6.07h8.92Z"/></g></g></g></g></svg>